<mxfile host="65bd71144e">
    <diagram name="PÃ¡gina-1" id="FU7_e3MrhCmr2wi-DU4q">
        <mxGraphModel dx="975" dy="677" grid="0" gridSize="10" guides="1" tooltips="1" connect="1" arrows="1" fold="1" page="1" pageScale="1" pageWidth="583" pageHeight="827" background="#ffffff" math="0" shadow="0">
            <root>
                <mxCell id="0"/>
                <mxCell id="1" parent="0"/>
                <mxCell id="TFVZIIZHtrb-T84XfTCF-2" value="AWS Cloud" style="points=[[0,0],[0.25,0],[0.5,0],[0.75,0],[1,0],[1,0.25],[1,0.5],[1,0.75],[1,1],[0.75,1],[0.5,1],[0.25,1],[0,1],[0,0.75],[0,0.5],[0,0.25]];outlineConnect=0;gradientColor=none;html=1;whiteSpace=wrap;fontSize=12;fontStyle=0;container=1;pointerEvents=0;collapsible=0;recursiveResize=0;shape=mxgraph.aws4.group;grIcon=mxgraph.aws4.group_aws_cloud;strokeColor=#232F3E;fillColor=none;verticalAlign=top;align=left;spacingLeft=30;fontColor=#232F3E;dashed=0;" parent="1" vertex="1">
                    <mxGeometry x="310" y="150" width="810" height="580" as="geometry"/>
                </mxCell>
                <mxCell id="TFVZIIZHtrb-T84XfTCF-4" value="VPC" style="points=[[0,0],[0.25,0],[0.5,0],[0.75,0],[1,0],[1,0.25],[1,0.5],[1,0.75],[1,1],[0.75,1],[0.5,1],[0.25,1],[0,1],[0,0.75],[0,0.5],[0,0.25]];outlineConnect=0;gradientColor=none;html=1;whiteSpace=wrap;fontSize=12;fontStyle=0;container=1;pointerEvents=0;collapsible=0;recursiveResize=0;shape=mxgraph.aws4.group;grIcon=mxgraph.aws4.group_vpc;strokeColor=#248814;fillColor=none;verticalAlign=top;align=left;spacingLeft=30;fontColor=#AAB7B8;dashed=0;" parent="TFVZIIZHtrb-T84XfTCF-2" vertex="1">
                    <mxGeometry x="320" y="50" width="462" height="480" as="geometry"/>
                </mxCell>
                <mxCell id="TFVZIIZHtrb-T84XfTCF-5" value="Private subnet" style="points=[[0,0],[0.25,0],[0.5,0],[0.75,0],[1,0],[1,0.25],[1,0.5],[1,0.75],[1,1],[0.75,1],[0.5,1],[0.25,1],[0,1],[0,0.75],[0,0.5],[0,0.25]];outlineConnect=0;gradientColor=none;html=1;whiteSpace=wrap;fontSize=12;fontStyle=0;container=1;pointerEvents=0;collapsible=0;recursiveResize=0;shape=mxgraph.aws4.group;grIcon=mxgraph.aws4.group_security_group;grStroke=0;strokeColor=#147EBA;fillColor=#E6F2F8;verticalAlign=top;align=left;spacingLeft=30;fontColor=#147EBA;dashed=0;" parent="TFVZIIZHtrb-T84XfTCF-4" vertex="1">
                    <mxGeometry x="208" y="84" width="170" height="130" as="geometry"/>
                </mxCell>
                <mxCell id="TFVZIIZHtrb-T84XfTCF-14" value="Availability Zone A" style="fillColor=none;strokeColor=#147EBA;dashed=1;verticalAlign=top;fontStyle=0;fontColor=#147EBA;whiteSpace=wrap;html=1;" parent="TFVZIIZHtrb-T84XfTCF-4" vertex="1">
                    <mxGeometry x="188" y="50" width="210" height="180" as="geometry"/>
                </mxCell>
                <mxCell id="TFVZIIZHtrb-T84XfTCF-42" value="ECS" style="sketch=0;points=[[0,0,0],[0.25,0,0],[0.5,0,0],[0.75,0,0],[1,0,0],[0,1,0],[0.25,1,0],[0.5,1,0],[0.75,1,0],[1,1,0],[0,0.25,0],[0,0.5,0],[0,0.75,0],[1,0.25,0],[1,0.5,0],[1,0.75,0]];outlineConnect=0;fontColor=#232F3E;gradientColor=#F78E04;gradientDirection=north;fillColor=#D05C17;strokeColor=#ffffff;dashed=0;verticalLabelPosition=bottom;verticalAlign=top;align=center;html=1;fontSize=12;fontStyle=1;aspect=fixed;shape=mxgraph.aws4.resourceIcon;resIcon=mxgraph.aws4.ecs;" parent="TFVZIIZHtrb-T84XfTCF-4" vertex="1">
                    <mxGeometry x="267" y="134" width="44" height="44" as="geometry"/>
                </mxCell>
                <mxCell id="TFVZIIZHtrb-T84XfTCF-49" value="Private subnet" style="points=[[0,0],[0.25,0],[0.5,0],[0.75,0],[1,0],[1,0.25],[1,0.5],[1,0.75],[1,1],[0.75,1],[0.5,1],[0.25,1],[0,1],[0,0.75],[0,0.5],[0,0.25]];outlineConnect=0;gradientColor=none;html=1;whiteSpace=wrap;fontSize=12;fontStyle=0;container=1;pointerEvents=0;collapsible=0;recursiveResize=0;shape=mxgraph.aws4.group;grIcon=mxgraph.aws4.group_security_group;grStroke=0;strokeColor=#147EBA;fillColor=#E6F2F8;verticalAlign=top;align=left;spacingLeft=30;fontColor=#147EBA;dashed=0;" parent="TFVZIIZHtrb-T84XfTCF-4" vertex="1">
                    <mxGeometry x="208" y="294" width="170" height="130" as="geometry"/>
                </mxCell>
                <mxCell id="TFVZIIZHtrb-T84XfTCF-50" value="Availability Zone A" style="fillColor=none;strokeColor=#147EBA;dashed=1;verticalAlign=top;fontStyle=0;fontColor=#147EBA;whiteSpace=wrap;html=1;" parent="TFVZIIZHtrb-T84XfTCF-4" vertex="1">
                    <mxGeometry x="188" y="260" width="210" height="180" as="geometry"/>
                </mxCell>
                <mxCell id="TFVZIIZHtrb-T84XfTCF-51" value="ECS" style="sketch=0;points=[[0,0,0],[0.25,0,0],[0.5,0,0],[0.75,0,0],[1,0,0],[0,1,0],[0.25,1,0],[0.5,1,0],[0.75,1,0],[1,1,0],[0,0.25,0],[0,0.5,0],[0,0.75,0],[1,0.25,0],[1,0.5,0],[1,0.75,0]];outlineConnect=0;fontColor=#232F3E;gradientColor=#F78E04;gradientDirection=north;fillColor=#D05C17;strokeColor=#ffffff;dashed=0;verticalLabelPosition=bottom;verticalAlign=top;align=center;html=1;fontSize=12;fontStyle=1;aspect=fixed;shape=mxgraph.aws4.resourceIcon;resIcon=mxgraph.aws4.ecs;" parent="TFVZIIZHtrb-T84XfTCF-4" vertex="1">
                    <mxGeometry x="267" y="344" width="44" height="44" as="geometry"/>
                </mxCell>
                <mxCell id="TFVZIIZHtrb-T84XfTCF-52" value="Security group" style="fillColor=none;strokeColor=#DD3522;verticalAlign=top;fontStyle=0;fontColor=#DD3522;whiteSpace=wrap;html=1;" parent="TFVZIIZHtrb-T84XfTCF-4" vertex="1">
                    <mxGeometry x="238" y="110" width="110" height="310" as="geometry"/>
                </mxCell>
                <mxCell id="TFVZIIZHtrb-T84XfTCF-53" value="" style="sketch=0;points=[[0,0,0],[0.25,0,0],[0.5,0,0],[0.75,0,0],[1,0,0],[0,1,0],[0.25,1,0],[0.5,1,0],[0.75,1,0],[1,1,0],[0,0.25,0],[0,0.5,0],[0,0.75,0],[1,0.25,0],[1,0.5,0],[1,0.75,0]];outlineConnect=0;fontColor=#232F3E;gradientColor=#F78E04;gradientDirection=north;fillColor=#D05C17;strokeColor=#ffffff;dashed=0;verticalLabelPosition=bottom;verticalAlign=top;align=center;html=1;fontSize=12;fontStyle=0;aspect=fixed;shape=mxgraph.aws4.resourceIcon;resIcon=mxgraph.aws4.elastic_load_balancing;" parent="TFVZIIZHtrb-T84XfTCF-4" vertex="1">
                    <mxGeometry x="68" y="222" width="49" height="49" as="geometry"/>
                </mxCell>
                <mxCell id="TFVZIIZHtrb-T84XfTCF-71" style="edgeStyle=orthogonalEdgeStyle;rounded=0;orthogonalLoop=1;jettySize=auto;html=1;strokeColor=#000000;" parent="TFVZIIZHtrb-T84XfTCF-2" source="TFVZIIZHtrb-T84XfTCF-41" target="TFVZIIZHtrb-T84XfTCF-59" edge="1">
                    <mxGeometry relative="1" as="geometry"/>
                </mxCell>
                <mxCell id="TFVZIIZHtrb-T84XfTCF-41" value="Internet&#10;gateway" style="sketch=0;outlineConnect=0;fontColor=#232F3E;gradientColor=none;strokeColor=#232F3E;fillColor=#ffffff;dashed=0;verticalLabelPosition=bottom;verticalAlign=top;align=center;html=1;fontSize=12;fontStyle=0;aspect=fixed;shape=mxgraph.aws4.resourceIcon;resIcon=mxgraph.aws4.internet_gateway;" parent="TFVZIIZHtrb-T84XfTCF-2" vertex="1">
                    <mxGeometry x="30" y="266" width="60" height="60" as="geometry"/>
                </mxCell>
                <mxCell id="TFVZIIZHtrb-T84XfTCF-56" value="Region" style="points=[[0,0],[0.25,0],[0.5,0],[0.75,0],[1,0],[1,0.25],[1,0.5],[1,0.75],[1,1],[0.75,1],[0.5,1],[0.25,1],[0,1],[0,0.75],[0,0.5],[0,0.25]];outlineConnect=0;gradientColor=none;html=1;whiteSpace=wrap;fontSize=12;fontStyle=0;container=1;pointerEvents=0;collapsible=0;recursiveResize=0;shape=mxgraph.aws4.group;grIcon=mxgraph.aws4.group_region;strokeColor=#147EBA;fillColor=none;verticalAlign=top;align=left;spacingLeft=30;fontColor=#147EBA;dashed=1;" parent="TFVZIIZHtrb-T84XfTCF-2" vertex="1">
                    <mxGeometry x="150" y="30" width="650" height="520" as="geometry"/>
                </mxCell>
                <mxCell id="TFVZIIZHtrb-T84XfTCF-57" value="VPC LINK" style="sketch=0;points=[[0,0,0],[0.25,0,0],[0.5,0,0],[0.75,0,0],[1,0,0],[0,1,0],[0.25,1,0],[0.5,1,0],[0.75,1,0],[1,1,0],[0,0.25,0],[0,0.5,0],[0,0.75,0],[1,0.25,0],[1,0.5,0],[1,0.75,0]];outlineConnect=0;fontColor=#232F3E;gradientColor=#945DF2;gradientDirection=north;fillColor=#5A30B5;strokeColor=#ffffff;dashed=0;verticalLabelPosition=bottom;verticalAlign=top;align=center;html=1;fontSize=12;fontStyle=1;aspect=fixed;shape=mxgraph.aws4.resourceIcon;resIcon=mxgraph.aws4.vpc_privatelink;" parent="TFVZIIZHtrb-T84XfTCF-56" vertex="1">
                    <mxGeometry x="120" y="244" width="44" height="44" as="geometry"/>
                </mxCell>
                <mxCell id="TFVZIIZHtrb-T84XfTCF-60" style="edgeStyle=orthogonalEdgeStyle;rounded=0;orthogonalLoop=1;jettySize=auto;html=1;entryX=0;entryY=0.5;entryDx=0;entryDy=0;entryPerimeter=0;strokeColor=#000000;" parent="TFVZIIZHtrb-T84XfTCF-56" source="TFVZIIZHtrb-T84XfTCF-59" target="TFVZIIZHtrb-T84XfTCF-57" edge="1">
                    <mxGeometry relative="1" as="geometry"/>
                </mxCell>
                <mxCell id="TFVZIIZHtrb-T84XfTCF-59" value="API Gatway" style="sketch=0;points=[[0,0,0],[0.25,0,0],[0.5,0,0],[0.75,0,0],[1,0,0],[0,1,0],[0.25,1,0],[0.5,1,0],[0.75,1,0],[1,1,0],[0,0.25,0],[0,0.5,0],[0,0.75,0],[1,0.25,0],[1,0.5,0],[1,0.75,0]];outlineConnect=0;fontColor=#232F3E;gradientColor=#945DF2;gradientDirection=north;fillColor=#5A30B5;strokeColor=#ffffff;dashed=0;verticalLabelPosition=bottom;verticalAlign=top;align=center;html=1;fontSize=12;fontStyle=1;aspect=fixed;shape=mxgraph.aws4.resourceIcon;resIcon=mxgraph.aws4.api_gateway;" parent="TFVZIIZHtrb-T84XfTCF-56" vertex="1">
                    <mxGeometry x="7" y="233" width="67" height="67" as="geometry"/>
                </mxCell>
                <mxCell id="TFVZIIZHtrb-T84XfTCF-61" value="&lt;b&gt;&lt;font style=&quot;font-size: 13px;&quot;&gt;Target Group&lt;/font&gt;&lt;/b&gt;" style="fillColor=none;strokeColor=#5A6C86;dashed=1;verticalAlign=top;fontStyle=0;fontColor=#5A6C86;whiteSpace=wrap;html=1;" parent="TFVZIIZHtrb-T84XfTCF-56" vertex="1">
                    <mxGeometry x="320" y="30" width="290" height="460" as="geometry"/>
                </mxCell>
                <mxCell id="TFVZIIZHtrb-T84XfTCF-58" style="edgeStyle=orthogonalEdgeStyle;rounded=0;orthogonalLoop=1;jettySize=auto;html=1;strokeColor=#000000;" parent="TFVZIIZHtrb-T84XfTCF-2" source="TFVZIIZHtrb-T84XfTCF-57" target="TFVZIIZHtrb-T84XfTCF-53" edge="1">
                    <mxGeometry relative="1" as="geometry"/>
                </mxCell>
                <mxCell id="TFVZIIZHtrb-T84XfTCF-63" style="edgeStyle=orthogonalEdgeStyle;rounded=0;orthogonalLoop=1;jettySize=auto;html=1;entryX=0;entryY=0.515;entryDx=0;entryDy=0;entryPerimeter=0;strokeColor=#000000;" parent="TFVZIIZHtrb-T84XfTCF-2" source="TFVZIIZHtrb-T84XfTCF-53" target="TFVZIIZHtrb-T84XfTCF-61" edge="1">
                    <mxGeometry relative="1" as="geometry"/>
                </mxCell>
                <mxCell id="TFVZIIZHtrb-T84XfTCF-66" style="edgeStyle=orthogonalEdgeStyle;rounded=0;orthogonalLoop=1;jettySize=auto;html=1;strokeColor=#000000;" parent="1" source="TFVZIIZHtrb-T84XfTCF-64" target="TFVZIIZHtrb-T84XfTCF-65" edge="1">
                    <mxGeometry relative="1" as="geometry"/>
                </mxCell>
                <mxCell id="TFVZIIZHtrb-T84XfTCF-64" value="" style="sketch=0;outlineConnect=0;fontColor=#232F3E;gradientColor=none;fillColor=#232F3D;strokeColor=none;dashed=0;verticalLabelPosition=bottom;verticalAlign=top;align=center;html=1;fontSize=12;fontStyle=0;aspect=fixed;pointerEvents=1;shape=mxgraph.aws4.users;" parent="1" vertex="1">
                    <mxGeometry x="155" y="190" width="78" height="78" as="geometry"/>
                </mxCell>
                <mxCell id="TFVZIIZHtrb-T84XfTCF-67" style="edgeStyle=orthogonalEdgeStyle;rounded=0;orthogonalLoop=1;jettySize=auto;html=1;strokeColor=#000000;" parent="1" source="TFVZIIZHtrb-T84XfTCF-65" target="TFVZIIZHtrb-T84XfTCF-41" edge="1">
                    <mxGeometry relative="1" as="geometry"/>
                </mxCell>
                <mxCell id="TFVZIIZHtrb-T84XfTCF-65" value="" style="sketch=0;outlineConnect=0;fontColor=#232F3E;gradientColor=none;fillColor=#232F3D;strokeColor=none;dashed=0;verticalLabelPosition=bottom;verticalAlign=top;align=center;html=1;fontSize=12;fontStyle=0;aspect=fixed;pointerEvents=1;shape=mxgraph.aws4.client;" parent="1" vertex="1">
                    <mxGeometry x="155" y="408" width="78" height="76" as="geometry"/>
                </mxCell>
            </root>
        </mxGraphModel>
    </diagram>
</mxfile>